<svg t="1575203082217" class="icon" viewBox="0 0 1024 1024" version="1.1" xmlns="http://www.w3.org/2000/svg" p-id="1921" width="200" height="200"><path d="M886.57 199.34c-75.88-62-200.47-97-292.12-52.88-41.41 19.93-69.6 70.86-111.54 57.77-1.09-0.34-2.12-0.75-3.19-1.11-24.61-20.62-57.46-38.1-66.43-42.34-81.83-38.57-178.1-22.48-248.61 32.53C97.1 246 54.67 330.93 65.76 417.25 80.9 535.12 179.93 611.41 259.3 688.3c53.35 51.7 107.85 95.2 166.47 140.56 27.63 21.39 64.73 65.7 100.49 68.3 27.51 2 47.34-16.27 68.28-31.67 52.44-38.56 104-79 150.28-124.9 122-120.9 325.12-391.48 141.75-541.25z m-193.23 528c-38.83 35.12-81.22 76.88-127.78 100.55-33.32 16.94-55.65 6.73-80.1-11 6.85-16.76 8.8-34.65 14.18-52 6.9-22.17 16.28-43.53 23.9-65.46 1.36-3.92-4.7-5.46-6.15-1.7-7.85 20.4-17.07 40.25-24.6 60.77-6.37 17.34-8.4 35.76-14.41 53.07-7.8-5.94-15.9-12.4-24.76-18.85-2.5-1.82-4.88-3.75-7.36-5.59 14.58-30.73 26.91-62.44 43.29-92.4 2.22-4.05-4-7.67-6.19-3.62-16.18 29.24-31.43 59.52-44.35 90.5-9.31-7-18.65-14.06-27.86-21.19 2.57-20.92 15.1-41.58 23.42-60.7 7.37-16.95 14.45-34 21-51.29 1.46-3.88-4.62-5.41-6.15-1.7-10 24.29-21.12 48-32.48 71.69-5.73 11.94-11.6 23.43-13.08 36.43-23.69-18.49-47-37.29-69.9-56.63a4.06 4.06 0 0 0 4-2.65c19-42.69 33-87.49 61.25-125.33 2.68-3.59-3.49-8.41-6.26-4.83-28.75 37.19-45.7 82-64.06 124.86a5.35 5.35 0 0 0-0.24 3.45c-26.66-22.69-53-45.82-78.77-69.7l1-0.6c4.44-2.74 1.88-8.68-2.28-8.91 2.7-20.14 20.3-39.48 29.83-56.32 13-23 26-45.77 41.05-67.53 2.58-3.75-3.5-7.23-6.08-3.55-18.46 26.28-33.55 54.53-51 81.41-9.33 14.34-21.51 27.91-23.85 44.82-10.67-10-21.42-19.8-32-30a4.64 4.64 0 0 0 0.92-1.22C222.12 551 241 522.18 262 494.94c10.48-13.58 22.73-28.36 17-46.31a2.39 2.39 0 0 0-4.61 1.27c4.47 22.78-21.9 44-34.14 60.7-15.26 20.84-29.29 42.35-41 65.39-25-25.26-47-53.24-63.49-83.08 9-11.12 14.91-24 22.16-36.32 11.86-20.21 26.32-38.54 41-56.78 1.74-2.18-1.32-5.3-3.1-3.1-12 14.8-24.07 29.58-35.09 45.11-10 14.12-17.74 30.38-28.86 43.71a270.94 270.94 0 0 1-13.83-31.17c27.76-31.47 51.73-65.92 76.29-99.9 2.31-3.19-3-6.23-5.28-3.08-23.55 32.38-47 64.7-73.92 94.39-13.71-42.53-15-87.24 2.83-131.53 10.51-12.65 23.3-24.1 32.69-34.07 27.25-28.93 57-53.88 87.93-78.73 1.92-1.54-0.68-5-2.66-3.44-36 27.75-69.27 56.32-101 88.89-2.5 2.57-5.17 5.27-7.9 8A221.54 221.54 0 0 1 144 267.6c37.13-50.6 89.81-84.6 152.58-93.06a208.11 208.11 0 0 1 32.5-1.81 12.27 12.27 0 0 0 10 5.7c72.85 4.88 84.82 46.2 142.47 68.32 4.77 1.83 8.39 4.18 12.08 6.1a6.86 6.86 0 0 1-0.33 1.09c-2.93 5.09 3.93 10.46 8.14 6.28a24.25 24.25 0 0 0 3.18-4.34 21.75 21.75 0 0 0 3.89 0.22c20.71-2 34.53-26.52 48.3-38.52 55.83-48.64 116.5-58.72 187.1-41.16 58.75 14.58 129.65 47.41 159.41 104.22 36.66 70 2.6 149.23-30 212.94C828.15 581.76 766.75 661 693.34 727.36z" fill="#333333" p-id="1922"></path><path d="M166.49 322a451.7 451.7 0 0 0-52 68.52c-2.79 4.52 4.37 8.7 7.11 4.16a441.19 441.19 0 0 1 50-67.51c3.19-3.5-1.91-8.66-5.11-5.17zM245.5 419.21c-14.47 23.82-28.87 47.42-46 69.44-10.81 13.88-20.16 26.79-23.68 44.35-1.21 6 8.16 8.56 9.22 2.54 3.76-21.41 17.3-36 29.41-53.21 13.48-19.13 24.9-39.65 36.92-59.71 2.22-3.74-3.61-7.13-5.87-3.41zM347.74 532.7C337.07 553.33 323.6 572.35 313 593c-9.5 18.57-15.38 38.6-23.69 57.7-2.93 6.75 6.47 10.79 9.35 3.94 8.51-20.25 13.62-41.6 23.24-61.43 9.5-19.59 21.31-38 31.21-57.37 1.89-3.56-3.52-6.72-5.37-3.14zM415.58 600.61c-18.57 36.79-37.08 73.64-55 110.74a4.8 4.8 0 0 0 1.67 6.35l2.84 2c4.69 3.32 9.33-4 5.3-7.61 15.93-36.57 33.17-72.42 51-108.14 1.82-3.8-3.88-7.17-5.81-3.34z" fill="#333333" p-id="1923"></path></svg>